<?xml version="1.0" encoding="utf-8"?>
<!-- Generator: Adobe Illustrator 25.4.1, SVG Export Plug-In . SVG Version: 6.00 Build 0)  -->
<svg version="1.1" id="Layer_1" xmlns="http://www.w3.org/2000/svg" xmlns:xlink="http://www.w3.org/1999/xlink" x="0px" y="0px"
	 viewBox="0 0 289.15 31" style="enable-background:new 0 0 289.15 31;" xml:space="preserve">
<style type="text/css">
	.st0{fill:#7DC243;}
	.st1{fill:#0F2C4E;}
	.st2{fill:#FFFFFF;}
</style>
<g>
	<polygon class="st0" points="96.76,31.18 0,31.18 0,0.21 75.07,0.21 	"/>
	<path class="st1" d="M33.28,5.33c-0.22-1.51-1.14-1.07-1.01-1.57c0.04-0.16-0.13-0.82-1.09-0.82h-18.8v10.93
		c0.21,0.08,0.91-0.06,1.04-0.2c0.59-0.71,1.12-1.64,2.06-1.83c0.28-0.05,0.65-0.08,0.85,0.14c-0.1,0.22-0.39,0.19-0.58,0.26
		c-0.63,0.19-1.28,0.5-1.69,1.1c-0.03,0.06-0.02,0.14,0.03,0.18c0.08,0.01,0.14-0.01,0.21-0.03c0.32-0.23,0.62-0.54,1.04-0.47
		c0.07,0.02,0.11,0.1,0.07,0.16c-0.26,0.3-0.64,0.39-0.96,0.58c-0.43,0.35-1.61,0.63-1.76,1.21c-0.01,0.02,0.57,0.07,0.61,0.07
		c0.55,0.04,0.7-0.61,1.12-0.9c0.16-0.1,0.37-0.25,0.56-0.14c0.02,0.09-0.05,0.14-0.07,0.21c-0.5,0.52-1.12,0.83-1.61,1.36
		c-0.15,0.16-0.8,0.35-0.9,0.52v2.03c0.42-0.65,1.44-1.51,2.16-1.92c0.08-0.02,0.2-0.05,0.26,0.04c0.1,0.11,0.02,0.28,0,0.4
		c-0.3,0.52-0.73,0.99-0.99,1.53c-0.04-0.25,0.06-0.47,0.16-0.68c0.02-0.04,0.04-0.12-0.01-0.15c-0.22,0-0.33,0.25-0.41,0.4
		c-0.27,0.67-1.06,1.37-1.19,2.1v9.23h4.79h1.15c0.33-0.3,0.74-0.69,0.95-1.08c0.27-0.37,0.33-0.88,0.66-1.19
		c0.05-0.02,0.09-0.04,0.14,0c0.18,0.38,0.05,0.87-0.12,1.21c-0.09,0.24-0.3,0.42-0.32,0.69c0,0.07,0.16,0.08,0.24,0.02
		c0.6-0.49,0.7-1.33,0.88-2.07c0.03-0.03,0.03-0.11,0.09-0.1c0.08,0.09,0.04,0.25,0.03,0.36c-0.02,0.1-0.08,0.21-0.06,0.31
		c0.29,0.12,0.32-0.31,0.44-0.49c0.04,0.02,0.1,0.03,0.11,0.09c0.04,0.4-0.13,0.75-0.4,1c-0.1,0.09-0.35,0.15-0.29,0.31
		c0.04,0.12,0.24,0.1,0.35,0.07c0.03,0.02,0.05,0.04,0.02,0.1c-0.12,0.23-0.52,0.61-0.73,0.77h1.11c0.57-0.36,1.14-0.87,1.57-1.43
		L23,27.65l0.07-0.03c0.3-0.42,0.58-0.85,0.86-1.28c0.24-0.47,0.53-0.98,0.37-1.56c-0.13-0.33-0.5-0.19-0.76-0.18
		c-0.13-0.07-0.27-0.12-0.38-0.26c-0.06-0.09-0.02-0.24-0.12-0.3c-0.27-0.08-0.48,0.17-0.67,0.36c-0.08,0.04-0.17,0.12-0.24,0.06
		c-0.02-0.53,0.48-0.86,0.57-1.35c-0.02-0.1-0.09-0.14-0.16-0.2c-0.36,0-0.54,0.37-0.79,0.57l-0.12,0.02
		c-0.07-0.07-0.08-0.19-0.07-0.3c0.05-0.33,0.25-0.62,0.47-0.89c0.81-1.3,2.6-1.29,2.6-1.29c1.69,0,2.82,1.09,3.1,1.09
		c0.05,0,0.23-0.09,0.22-0.36c-0.01-0.24-0.12-0.5-0.28-0.52c-0.07-0.01,0.12,0.21-0.27,0.12c-1.49-0.34-2.56-1.36-2.47-2.29
		c0.09-0.92-0.1-1.35,1.62-2.08c0.26-0.11,0.63-0.13,0.55-0.79c0,0-0.06-0.2-0.2-0.2c-0.07,0-0.17,0.05-0.16,0.15
		c0,0,0.09,0.16-0.14,0.16c-0.2,0-0.11-0.26-0.68-0.26c-0.45,0-0.63,0.09-0.63,0.09c-0.32,0.13-0.69,0.1-0.69,0.1
		s-0.39,0.03-0.67-0.12c0,0-0.13-0.07-0.66-0.09c-0.56-0.01-0.47,0.27-0.68,0.27c-0.12,0-0.15-0.09-0.12-0.22
		c0.01-0.06,0.09-0.14-0.25-0.38c-0.24-0.17-0.16-0.48-0.11-0.58c0.31-0.58,0.36-0.84,0.39-1.09c0.07-0.44-0.73-1.36-0.87-1.64
		c-0.25-0.47,0.02-0.67-0.95-0.77c-1.02-0.11-1.26-0.84-1.27-1.06c0-0.05,0.02-0.16,0.17-0.08c0.32,0.17,0.58,0.79,1.09,0.79
		c0.55,0,1.08,0.1,1.18,0.31c0.23,0.46,0.47,0.56,0.6,0.57c0.36,0.03-0.11-0.79,0.03-0.94c0.08-0.1,0.21-0.07,0.34-0.04
		c0.32,0.08,0.73,0.27,0.88,0.51c0.04,0.07,0.31,0.03,0.35-0.12c0.18-0.72,0.41-0.69,0.75-0.64c0.26,0.04,0.35,0.06,0.35,0.44
		c0,0.29,0.19,0.35,0.39,0.31c0.3-0.07,0.46-0.69,0.8-0.72c0.08-0.01,0.12,0.01,0.15,0.07c0.03,0.08-0.26,0.32-0.17,0.5
		c0.07,0.14,0.15-0.08,0.25-0.03c0.25,0.12,0.09,0.66,0.33,0.65c0.3-0.02,0.26-0.23,0.41-0.43c0.17-0.22,0.3-0.26,0.49-0.33
		c0.5-0.17,1.11-0.3,1.55-0.53c1.13-0.63,0.42-2.31-0.49-3.38c-0.22-0.26,0.11-0.48,0.39-0.2c0.54,0.55,0.81,1.35,1.23,1.35
		c0.2,0.01,1.45-0.29,2.02-0.83C33.11,7.2,33.4,6.15,33.28,5.33 M20.04,18.71c0.39-0.71,1.87-1.88,2.66-1.66
		c1.28,0.36,1.51,1.43,1.54,1.86c0.14,1.64-1.92,2.6-2.03,2.54c-0.08-0.05,0.02-0.14,0-0.23c-0.01-0.06-0.07-0.09-0.11-0.08
		c-0.45,0.03-0.48,0.64-0.78,0.91c-0.09,0.01-0.14-0.07-0.21-0.11c-0.17-0.26,0.27-0.25,0.32-0.45c0.04-0.13,0.04-0.31-0.05-0.38
		c-0.09-0.07-0.22-0.06-0.34,0.02c-0.17,0.12-0.17,0.45-0.39,0.36c-0.05-0.02-0.13-0.28-0.09-0.36c0.22-0.28,0.64-0.23,0.68-0.65
		c0.03-0.26,0.22-0.23,0.36-0.28c0.13-0.07,0.15-0.23,0.2-0.36c0.11-0.3,0.4-0.25,0.42-0.41c0.01-0.09-0.02-0.19-0.11-0.25
		c-0.14-0.03-0.25,0.03-0.34,0.1c-0.08,0.06-0.03,0.2-0.14,0.26c-0.13,0.07-0.25,0.08-0.38,0.11c-0.2,0.07-0.2,0.27-0.25,0.47
		c-0.02,0.1-0.23,0.07-0.32,0.09c-0.2,0.05-0.25,0.26-0.32,0.44c0,0.01-0.01,0.04-0.04,0.04c-0.08,0-0.16-0.08-0.21-0.13
		c-0.05-0.04-0.08-0.12-0.03-0.18c0.03-0.04,0.07-0.09,0.13-0.1c0.12-0.03,0.21-0.18,0.18-0.31c-0.06-0.23,0.22-0.32,0.23-0.41
		c0.01-0.08-0.02-0.16-0.1-0.21c-0.18-0.11-0.32,0.1-0.49,0.16c-0.05,0.02-0.14-0.06-0.16-0.13C19.83,19.14,19.96,18.92,20.04,18.71
		 M18.43,3.84c0.81,0.18,1.55,0.64,2.05,1.34c0.39,0.61,0.53,1.41,1.25,1.81c0.08,0.09,0.21,0.15,0.32,0.2
		c-0.15,0-0.31-0.06-0.45-0.13c-0.06-0.01-0.12-0.11-0.2-0.04c-0.05,0.02-0.03,0.07-0.03,0.11c0.05,0.05,0.11,0.09,0.16,0.14
		c-0.03,0.04-0.07,0.06-0.1,0.11c-0.74-0.29-0.82-1.12-1.2-1.68c-0.2-0.33-0.38-0.69-0.72-0.91c-0.06-0.01-0.11,0.03-0.13,0.08
		C19.45,5,19.6,5.11,19.68,5.25c0.21,0.35,0.39,0.7,0.36,1.15c-0.05,0.04-0.02,0.12-0.09,0.13c-0.11,0.04-0.19-0.05-0.24-0.13
		c-0.39-0.52-0.4-1.22-0.93-1.66c-0.02,0.01-0.03,0-0.04-0.01c-0.17,0.15-0.01,0.4-0.01,0.6v0.14c-0.29-0.53-0.59-1.06-1.2-1.33
		c-0.26-0.12-1.46-0.03-2.02,0.57c-0.02,0.02-0.07,0.01-0.07-0.05C15.46,4.37,16.04,3.29,18.43,3.84 M18.03,7.37
		c-0.84-0.26-1.56-0.79-2.36-1.13c-0.14-0.03-0.32-0.11-0.46,0c-0.1,0.15,0.12,0.18,0.18,0.27c-0.38-0.1-0.74,0.03-1.07,0.13
		c-0.07-0.01-0.17,0.03-0.22-0.04c-0.02-0.19,0.17-0.36,0.29-0.5c0.33-0.37,0.79-0.43,1.27-0.46l0.02,0.02l0.02-0.02
		c0.52,0.04,1.01,0.16,1.42,0.46c0.68,0.4,1.23,1.03,1.87,1.49C18.65,7.61,18.34,7.44,18.03,7.37 M22.94,9.54
		c0.06,0.34-0.16,1.12-0.29,1.13c-0.23,0-0.24-0.24-0.3-0.58c-0.02-0.4,0.23-0.76-0.07-0.87c-0.44,0.02-0.24,0.73-0.59,0.72
		c-0.19-0.01-0.38-0.2-0.62-0.27c-1.21-0.34-1.7,0.67-1.94,0.62c-0.43-0.1-0.09-0.36,0-0.5c0.3-0.4,1.05-0.73,1.69-0.88
		c0.5-0.11,0.83-0.43,1.53-0.43C23.07,8.61,22.88,9.24,22.94,9.54 M29.25,9.4c0.1,0.07,0.2,0.16,0.16,0.33
		c-0.04,0.18-0.16,0.06-0.3,0.02c-0.77-0.2-0.97-0.14-1.42,0.12c-0.3,0.18-0.38-0.14-0.5-0.37c-0.05-0.09-0.18-0.26-0.28-0.2
		c-0.07,0.05-0.05,0.36-0.01,0.44c0.04,0.28-0.09,0.53-0.26,0.63c-0.17,0.01-0.19-0.09-0.28-0.24c-0.26-0.45-0.34-1.37,0.17-1.54
		c0.36-0.12,1.16-0.06,1.53,0.34C28.63,9.31,29.13,9.33,29.25,9.4 M29.26,4.88c0.31-0.56,0.94-0.68,1.53-0.6
		c0.24,0.06,0.47,0.18,0.66,0.34c0,0.15,0.2,0.16,0.22,0.31l-0.03,0.02C30.95,4.69,29.96,4.46,29.26,4.88 M31.24,6.33
		c-0.31-0.04-0.63-0.08-0.91-0.19c0.42-0.21,1.13-0.68,1.5-0.08C31.75,6.31,31.46,6.29,31.24,6.33"/>
	<polygon class="st2" points="42.99,22.21 40.13,22.21 36.09,16.43 36.09,22.21 33.72,22.21 33.72,9.82 36.09,9.82 36.09,15.07 
		40.41,9.82 42.63,9.82 38.23,15.28 	"/>
	<path class="st2" d="M49.26,22.41c-3.93,0-6.1-2.28-6.1-6.43c0-2.01,0.47-3.59,1.41-4.69c0.92-1.09,2.28-1.66,3.92-1.66
		c0.58,0,2.06,0.21,3.14,0.4l0.37,0.06v2.31l-1.87-1.13c-0.34-0.2-1.04-0.4-1.63-0.4h-0.04c-2.36,0-2.71,2.75-2.75,5.15
		c-0.03,2.01,0.39,3.52,1.21,4.35c0.53,0.54,1.25,0.81,2.13,0.81c1.15,0,1.98-0.41,2.48-0.76l0.87-0.61l-0.33,2.06l-0.21,0.1
		C51.45,22.18,50.27,22.41,49.26,22.41"/>
	<path class="st2" d="M58.7,22.21H54.4V9.82h3.95c1.17,0,2,0.18,2.61,0.57c0.78,0.5,1.17,1.31,1.17,2.46c0,0.87-0.25,1.57-0.75,2.08
		l-0.31,0.31l0.35,0.26c0.83,0.63,1.26,1.67,1.26,3.02c0,1.14-0.43,2.1-1.26,2.77C60.71,21.89,59.74,22.21,58.7,22.21 M56.77,20.96
		h1.16c1.82,0,2.37-0.59,2.37-2.53c0-1.32-1.02-1.91-2.03-1.91h-1.5V20.96z M56.77,14.62h0.89c0.04,0,0.08,0,0.12,0
		c0.06,0,0.12,0,0.18,0c0.18,0,0.73,0,1.13-0.25c0.41-0.26,0.6-0.73,0.6-1.44c0-1.71-0.92-1.85-1.95-1.85h-0.98V14.62z"/>
</g>
<g>
	<path class="st2" d="M108.48,19.62h-3.05v-7.83h2.95c1.36,0,2.31,0.78,2.31,2.09c0,0.83-0.5,1.47-1.16,1.72
		c0.75,0.27,1.28,0.92,1.28,1.86C110.82,18.88,109.87,19.62,108.48,19.62z M108.32,12.54h-2.05v2.72h2.05
		c0.87,0,1.54-0.43,1.54-1.36C109.86,12.96,109.19,12.54,108.32,12.54z M108.41,16h-2.13v2.87h2.13c0.97,0,1.57-0.56,1.57-1.44
		S109.38,16,108.41,16z"/>
	<path class="st2" d="M117.35,19.62l-0.63-1.77h-3.42l-0.63,1.77h-0.89l2.88-7.83h0.7l2.87,7.83H117.35z M115.03,12.99l-1.47,4.14
		h2.93L115.03,12.99z"/>
	<path class="st2" d="M124.5,19.62l-4.16-6.28v6.28h-0.84v-7.83h0.79l4.16,6.26v-6.26h0.84v7.83H124.5z"/>
	<path class="st2" d="M130,19.69c-0.77,0-1.47-0.29-2-0.81c-0.74-0.74-0.74-1.51-0.74-3.17c0-1.66,0-2.43,0.74-3.17
		c0.53-0.53,1.23-0.81,2-0.81c1.41,0,2.45,0.86,2.72,2.33h-0.86c-0.21-0.96-0.88-1.58-1.86-1.58c-0.52,0-1.01,0.2-1.35,0.55
		c-0.5,0.51-0.55,1.05-0.55,2.68c0,1.64,0.05,2.18,0.55,2.68c0.34,0.35,0.84,0.55,1.35,0.55c0.98,0,1.67-0.63,1.88-1.58h0.84
		C132.47,18.83,131.4,19.69,130,19.69z"/>
	<path class="st2" d="M139.13,19.62l-0.63-1.77h-3.42l-0.63,1.77h-0.89l2.88-7.83h0.7l2.87,7.83H139.13z M136.81,12.99l-1.47,4.14
		h2.93L136.81,12.99z"/>
	<path class="st2" d="M143.3,19.69c-1.18,0-1.95-0.3-2.68-1.03l0.57-0.57c0.65,0.65,1.25,0.86,2.13,0.86c1.14,0,1.85-0.54,1.85-1.45
		c0-0.41-0.12-0.76-0.37-0.98s-0.45-0.29-1.02-0.37l-0.91-0.14c-0.62-0.1-1.1-0.3-1.44-0.59c-0.4-0.35-0.59-0.84-0.59-1.46
		c0-1.33,0.96-2.21,2.51-2.21c1,0,1.66,0.25,2.33,0.86l-0.54,0.54c-0.48-0.44-1-0.67-1.83-0.67c-1.05,0-1.65,0.58-1.65,1.45
		c0,0.38,0.11,0.69,0.35,0.9c0.24,0.21,0.65,0.36,1.06,0.43l0.86,0.13c0.74,0.11,1.1,0.26,1.43,0.55c0.43,0.36,0.66,0.9,0.66,1.55
		C146.01,18.84,144.93,19.69,143.3,19.69z"/>
	<path class="st2" d="M149.77,19.69c-1.18,0-1.95-0.3-2.68-1.03l0.57-0.57c0.65,0.65,1.25,0.86,2.13,0.86
		c1.14,0,1.85-0.54,1.85-1.45c0-0.41-0.12-0.76-0.37-0.98s-0.45-0.29-1.02-0.37l-0.91-0.14c-0.62-0.1-1.1-0.3-1.44-0.59
		c-0.4-0.35-0.59-0.84-0.59-1.46c0-1.33,0.96-2.21,2.51-2.21c1,0,1.66,0.25,2.33,0.86l-0.54,0.54c-0.48-0.44-1-0.67-1.83-0.67
		c-1.05,0-1.65,0.58-1.65,1.45c0,0.38,0.11,0.69,0.35,0.9c0.24,0.21,0.65,0.36,1.06,0.43l0.86,0.13c0.74,0.11,1.1,0.26,1.43,0.55
		c0.43,0.36,0.66,0.9,0.66,1.55C152.47,18.84,151.4,19.69,149.77,19.69z"/>
	<path class="st2" d="M156.84,19.69c-1.58,0-2.73-1.09-2.73-2.65v-5.25h0.84v5.18c0,1.19,0.75,1.97,1.89,1.97
		c1.14,0,1.9-0.78,1.9-1.97v-5.18h0.84v5.25C159.58,18.6,158.42,19.69,156.84,19.69z"/>
	<path class="st2" d="M166.23,19.62l-1.78-3.48h-1.88v3.48h-0.84v-7.83h3c1.36,0,2.32,0.83,2.32,2.18c0,1.14-0.69,1.89-1.71,2.1
		l1.86,3.55H166.23z M164.66,12.54h-2.09v2.87h2.09c0.91,0,1.56-0.47,1.56-1.43C166.22,13.02,165.57,12.54,164.66,12.54z"/>
	<path class="st2" d="M173.52,19.62l-0.63-1.77h-3.42l-0.63,1.77h-0.89l2.88-7.83h0.7l2.87,7.83H173.52z M171.2,12.99l-1.47,4.14
		h2.93L171.2,12.99z"/>
	<path class="st2" d="M180.67,19.62l-4.16-6.28v6.28h-0.84v-7.83h0.79l4.16,6.26v-6.26h0.84v7.83H180.67z"/>
	<path class="st2" d="M186.17,19.69c-0.77,0-1.47-0.29-2-0.81c-0.74-0.74-0.74-1.51-0.74-3.17c0-1.66,0-2.43,0.74-3.17
		c0.53-0.53,1.23-0.81,2-0.81c1.41,0,2.45,0.86,2.72,2.33h-0.86c-0.21-0.96-0.88-1.58-1.86-1.58c-0.52,0-1.01,0.2-1.35,0.55
		c-0.5,0.51-0.55,1.05-0.55,2.68c0,1.64,0.05,2.18,0.55,2.68c0.34,0.35,0.84,0.55,1.35,0.55c0.98,0,1.67-0.63,1.88-1.58h0.84
		C188.63,18.83,187.56,19.69,186.17,19.69z"/>
	<path class="st2" d="M190.73,19.62v-7.83h4.86v0.75h-4.03v2.76H195v0.75h-3.43v2.83h4.03v0.75H190.73z"/>
	<path class="st2" d="M200.07,19.62v-7.83h0.84v7.83H200.07z"/>
	<path class="st2" d="M208.17,19.62l-4.16-6.28v6.28h-0.84v-7.83h0.79l4.16,6.26v-6.26h0.84v7.83H208.17z"/>
	<path class="st2" d="M213.52,12.54v7.08h-0.84v-7.08h-2.27v-0.75h5.37v0.75H213.52z"/>
	<path class="st2" d="M217.25,19.62v-7.83h4.86v0.75h-4.03v2.76h3.43v0.75h-3.43v2.83h4.03v0.75H217.25z"/>
	<path class="st2" d="M228.35,19.62l-1.78-3.48h-1.88v3.48h-0.84v-7.83h3c1.36,0,2.32,0.83,2.32,2.18c0,1.14-0.69,1.89-1.71,2.1
		l1.86,3.55H228.35z M226.78,12.54h-2.09v2.87h2.09c0.91,0,1.56-0.47,1.56-1.43C228.34,13.02,227.69,12.54,226.78,12.54z"/>
	<path class="st2" d="M236.94,19.62v-5.95l-2.14,4.72h-0.72l-2.18-4.72v5.95h-0.84v-7.83h0.84l2.55,5.56l2.49-5.56h0.84v7.83H236.94
		z"/>
	<path class="st2" d="M240.04,19.62v-7.83h4.86v0.75h-4.03v2.76h3.43v0.75h-3.43v2.83h4.03v0.75H240.04z"/>
	<path class="st2" d="M251.31,18.9c-0.47,0.47-1.17,0.73-1.98,0.73h-2.68v-7.83h2.68c0.81,0,1.51,0.25,1.98,0.73
		c0.81,0.81,0.77,2.01,0.77,3.1C252.08,16.71,252.12,18.08,251.31,18.9z M250.72,13.11c-0.41-0.42-0.94-0.57-1.54-0.57h-1.71v6.34
		h1.71c0.61,0,1.13-0.15,1.54-0.57c0.54-0.56,0.52-1.73,0.52-2.68C251.24,14.66,251.26,13.67,250.72,13.11z"/>
	<path class="st2" d="M254.05,19.62v-7.83h0.84v7.83H254.05z"/>
	<path class="st2" d="M261.71,19.62l-0.63-1.77h-3.42l-0.63,1.77h-0.89l2.88-7.83h0.7l2.87,7.83H261.71z M259.39,12.99l-1.47,4.14
		h2.93L259.39,12.99z"/>
	<path class="st2" d="M268.37,19.62l-1.78-3.48h-1.88v3.48h-0.84v-7.83h3c1.36,0,2.32,0.83,2.32,2.18c0,1.14-0.69,1.89-1.71,2.1
		l1.86,3.55H268.37z M266.79,12.54h-2.09v2.87h2.09c0.91,0,1.56-0.47,1.56-1.43C268.36,13.02,267.71,12.54,266.79,12.54z"/>
	<path class="st2" d="M273.21,16.39v3.23h-0.84v-3.23l-2.33-4.6h0.9l1.85,3.75l1.83-3.75h0.9L273.21,16.39z"/>
</g>
</svg>
